# This file uses centimeters as units for non-parametric coordinates.

mtllib obelisk.mtl
g default
v -1.414213 16.739094 -1.414214
v -1.414213 16.739094 1.414213
v 1.414214 16.739094 1.414213
v 1.414214 16.739094 -1.414214
v -0.942808 17.739094 -0.942809
v -0.942809 17.739094 0.942809
v 0.942809 17.739094 0.942809
v 0.942809 17.739094 -0.942809
v -0.471404 18.739098 -0.471405
v -0.471404 18.739098 0.471404
v 0.471405 18.739098 0.471404
v 0.471405 18.739098 -0.471405
v 0.000001 19.739098 -0.000000
v 1.547887 14.803624 -1.547887
v -1.547886 14.803624 -1.547887
v 1.547887 14.803624 1.547886
v -1.547886 14.803624 1.547886
v 1.647251 12.074981 -1.647252
v -1.647251 12.074981 -1.647252
v 1.647251 12.074981 1.647251
v -1.647251 12.074981 1.647251
v 1.726269 9.382759 -1.726270
v -1.726269 9.382759 -1.726270
v 1.726269 9.382759 1.726268
v -1.726269 9.382759 1.726268
v 1.786437 6.827271 -1.786438
v -1.786437 6.827271 -1.786438
v 1.786437 6.827271 1.786436
v -1.786437 6.827271 1.786436
v 1.831425 3.770601 -1.831425
v -1.831425 3.770601 -1.831426
v 1.831425 3.770601 1.831424
v -1.831425 3.770601 1.831424
v 2.586978 3.490098 -2.586978
v -2.586977 3.490098 -2.586979
v 2.586978 3.490098 2.586977
v -2.586978 3.490098 2.586977
v 2.880136 0.300118 -2.880136
v -2.880136 0.300118 -2.880137
v 2.880136 0.300118 2.880136
v -2.880136 0.300118 2.880135
v 3.011173 0.215140 -3.011174
v -3.011173 0.215140 -3.011174
v 3.011173 0.215140 3.011173
v -3.011173 0.215140 3.011173
v 3.011173 -0.007594 -3.011174
v -3.011173 -0.007594 -3.011174
v 3.011173 -0.007594 3.011173
v -3.011173 -0.007594 3.011173
vt 0.583779 0.848155
vt 0.718797 0.851444
vt 0.701676 0.890703
vt 0.634480 0.890153
vt 0.589099 0.779325
vt 0.724127 0.782347
vt 0.684554 0.929963
vt 0.650956 0.929688
vt 0.593435 0.682430
vt 0.728466 0.685073
vt 0.667432 0.969222
vt 0.597038 0.586844
vt 0.732068 0.589115
vt 0.599931 0.496122
vt 0.734958 0.498040
vt 0.352407 0.333962
vt 0.354459 0.338539
vt 0.321364 0.847566
vt 0.449024 0.845983
vt 0.431844 0.885035
vt 0.364911 0.884273
vt 0.326012 0.778426
vt 0.454554 0.777171
vt 0.414663 0.924088
vt 0.381197 0.923706
vt 0.329389 0.681125
vt 0.459186 0.680289
vt 0.397483 0.963140
vt 0.332043 0.585146
vt 0.463080 0.584715
vt 0.334035 0.494056
vt 0.466250 0.494003
vt 0.352474 0.335434
vt 0.350316 0.338941
vt 0.393567 0.293690
vt 0.396203 0.288528
vt 0.412702 0.102524
vt 0.411933 0.112345
vt 0.420284 0.093436
vt 0.419443 0.103567
vt 0.420248 0.080507
vt 0.419565 0.090947
vt 0.398768 0.291510
vt 0.395570 0.288369
vt 0.413120 0.106396
vt 0.416381 0.104186
vt 0.420611 0.097556
vt 0.424068 0.095070
vt 0.944318 0.356643
vt 0.424101 0.082043
vt 0.220578 0.847735
vt 0.304633 0.886988
vt 0.237442 0.887101
vt 0.215698 0.778611
vt 0.287901 0.926411
vt 0.254306 0.926467
vt 0.211994 0.681322
vt 0.271170 0.965833
vt 0.209018 0.585352
vt 0.206721 0.494270
vt 0.566718 0.887259
vt 0.499782 0.886701
vt 0.549656 0.926364
vt 0.516189 0.926085
vt 0.532595 0.965469
vt 0.602433 0.387618
vt 0.737454 0.389114
vt 0.204935 0.385341
vt 0.335455 0.385122
vt 0.469083 0.385508
vt 0.420673 0.084898
vt 0.945051 0.079960
vt 0.669180 0.076062
vt 0.668326 0.352794
vt 0.139847 0.336027
vt 0.095858 0.289364
vt 0.070690 0.094410
vt 0.070654 0.081481
vt 0.078322 0.103455
vt 0.078216 0.100267
vt 0.078339 0.087647
vt 0.085555 0.109188
vt 0.100410 0.290855
vt 0.142779 0.336934
vt 0.078353 0.095883
vt 0.078415 0.083225
vt 0.085757 0.104796
vt 0.101527 0.286932
vt 0.144242 0.332944
vt 0.071824 0.094194
vt 0.071856 0.081166
vt 0.079465 0.103348
vt 0.096146 0.290757
vt 0.140220 0.338006
vt 0.339425 0.492557
vt 0.339064 0.384026
vt 0.607636 0.496997
vt 0.606925 0.388045
vt 0.473101 0.495063
vt 0.472410 0.386533
vt 0.340526 0.583318
vt 0.609033 0.588107
vt 0.474480 0.585821
vt 0.342242 0.678956
vt 0.611063 0.684111
vt 0.476487 0.681454
vt 0.344664 0.775918
vt 0.613807 0.781443
vt 0.479205 0.778408
vt 0.348624 0.844839
vt 0.618004 0.850618
vt 0.483376 0.847317
vn -0.689631 0.220946 -0.689631
vn -0.689631 0.220946 0.689631
vn -0.588349 0.554700 0.588348
vn -0.588349 0.554700 -0.588349
vn 0.689631 0.220946 0.689631
vn 0.588349 0.554700 0.588348
vn 0.689631 0.220946 -0.689631
vn 0.588349 0.554700 -0.588348
vn -0.588349 0.554699 0.588349
vn -0.588349 0.554699 -0.588349
vn 0.588349 0.554699 0.588349
vn 0.588349 0.554699 -0.588349
vn 0.000000 -1.000000 -0.000000
vn 0.000000 -1.000000 -0.000000
vn 0.000000 -1.000000 -0.000000
vn 0.000000 -1.000000 -0.000000
vn -0.904534 0.426401 0.000000
vn -0.000000 0.426402 0.904534
vn 0.904534 0.426401 -0.000002
vn 0.000000 0.426402 -0.904534
vn 0.000000 0.048785 -0.998809
vn 0.000000 0.048785 -0.998809
vn 0.998809 0.048785 0.000000
vn 0.998809 0.048785 0.000000
vn -0.000000 0.048785 0.998809
vn -0.000000 0.048785 0.998809
vn -0.998809 0.048785 -0.000000
vn -0.998809 0.048785 -0.000000
vn 0.000000 0.032719 -0.999465
vn 0.000000 0.032719 -0.999465
vn 0.999465 0.032719 0.000000
vn 0.999465 0.032719 0.000000
vn -0.000000 0.032719 0.999465
vn -0.000000 0.032719 0.999465
vn -0.999465 0.032719 -0.000000
vn -0.999465 0.032719 -0.000000
vn 0.000000 0.026406 -0.999651
vn 0.000000 0.026406 -0.999651
vn 0.999651 0.026406 -0.000000
vn 0.999651 0.026406 -0.000000
vn -0.000000 0.026406 0.999651
vn -0.000000 0.026406 0.999651
vn -0.999651 0.026406 -0.000000
vn -0.999651 0.026406 -0.000000
vn 0.000000 0.018616 -0.999827
vn 0.000000 0.018616 -0.999827
vn 0.999827 0.018616 -0.000000
vn 0.999827 0.018616 -0.000000
vn -0.000000 0.018616 0.999827
vn -0.000000 0.018616 0.999827
vn -0.999827 0.018616 -0.000000
vn -0.999827 0.018616 -0.000000
vn 0.000000 0.370435 -0.928859
vn 0.000000 0.370435 -0.928859
vn 0.928859 0.370434 -0.000000
vn 0.928859 0.370434 -0.000000
vn -0.000000 0.370435 0.928859
vn -0.000000 0.370435 0.928859
vn -0.928859 0.370434 -0.000000
vn -0.928859 0.370434 -0.000000
vn 0.000000 0.937478 -0.348045
vn 0.000000 0.937478 -0.348045
vn 0.348045 0.937478 0.000000
vn 0.348045 0.937478 0.000000
vn -0.000000 0.937478 0.348044
vn -0.000000 0.937478 0.348044
vn -0.348045 0.937478 -0.000000
vn -0.348045 0.937478 -0.000000
vn 0.000000 0.091514 -0.995804
vn 0.000000 0.091514 -0.995804
vn 0.000000 0.151282 -0.988491
vn 0.000000 0.151282 -0.988491
vn 0.995804 0.091514 0.000000
vn 0.995804 0.091514 0.000000
vn 0.988491 0.151282 0.000000
vn 0.988491 0.151282 0.000000
vn -0.000000 0.091514 0.995804
vn -0.000000 0.091514 0.995804
vn -0.000000 0.151282 0.988491
vn -0.000000 0.151282 0.988491
vn -0.995804 0.091514 -0.000000
vn -0.995804 0.091514 -0.000000
vn -0.988491 0.151282 -0.000000
vn -0.988491 0.151282 -0.000000
vn 0.000000 0.839017 -0.544105
vn 0.000000 0.839017 -0.544105
vn 0.544106 0.839017 0.000000
vn 0.544106 0.839017 0.000000
vn -0.000000 0.839017 0.544105
vn -0.000000 0.839017 0.544105
vn -0.544106 0.839017 -0.000000
vn -0.544106 0.839017 -0.000000
vn 0.000000 0.000000 -1.000000
vn 0.000000 0.000000 -1.000000
vn 0.000000 0.000000 -1.000000
vn 0.000000 0.000000 -1.000000
vn 1.000000 0.000000 0.000000
vn 1.000000 0.000000 0.000000
vn 1.000000 0.000000 0.000000
vn 1.000000 0.000000 0.000000
vn -0.000000 0.000000 1.000000
vn -0.000000 0.000000 1.000000
vn -0.000000 0.000000 1.000000
vn -0.000000 0.000000 1.000000
vn -1.000000 0.000000 -0.000000
vn -1.000000 0.000000 -0.000000
vn -1.000000 0.000000 -0.000000
vn -1.000000 0.000000 -0.000000
s 1
g obelisk
usemtl initialShadingGroup
f 1/111/1 2/2/2 6/3/3 5/4/4
f 2/51/2 3/18/5 7/52/6 6/53/3
f 3/110/5 4/19/7 8/20/8 7/21/6
f 4/112/7 1/1/1 5/61/4 8/62/8
f 5/4/4 6/3/3 10/7/9 9/8/10
f 6/53/3 7/52/6 11/55/11 10/56/9
f 7/21/6 8/20/8 12/24/12 11/25/11
f 8/62/8 5/61/4 9/63/10 12/64/12
s off
f 47/49/13 46/74/14 48/73/15 49/72/16
s 1
f 9/8/10 10/7/9 13/11/17
f 10/56/9 11/55/11 13/58/18
f 11/25/11 12/24/12 13/28/19
f 12/64/12 9/63/10 13/65/20
f 1/1/1 4/112/7 14/109/21 15/5/22
f 4/19/7 3/110/5 16/107/23 14/23/24
f 3/18/5 2/51/2 17/54/25 16/22/26
f 2/2/2 1/111/1 15/108/27 17/6/28
f 15/5/22 14/109/21 18/106/29 19/9/30
f 14/23/24 16/107/23 20/104/31 18/27/32
f 16/22/26 17/54/25 21/57/33 20/26/34
f 17/6/28 15/108/27 19/105/35 21/10/36
f 19/9/30 18/106/29 22/103/37 23/12/38
f 18/27/32 20/104/31 24/101/39 22/30/40
f 20/26/34 21/57/33 25/59/41 24/29/42
f 21/10/36 19/105/35 23/102/43 25/13/44
f 23/12/38 22/103/37 26/99/45 27/14/46
f 22/30/40 24/101/39 28/95/47 26/32/48
f 24/29/42 25/59/41 29/60/49 28/31/50
f 25/13/44 23/102/43 27/97/51 29/15/52
f 27/14/46 26/99/45 30/100/53 31/66/54
f 26/32/48 28/95/47 32/96/55 30/70/56
f 28/31/50 29/60/49 33/68/57 32/69/58
f 29/15/52 27/97/51 31/98/59 33/67/60
f 31/16/54 30/89/53 34/88/61 35/44/62
f 30/34/56 32/84/55 36/83/63 34/35/64
f 32/33/58 33/75/57 37/76/65 36/36/66
f 33/17/60 31/94/59 35/93/67 37/43/68
s 2
f 35/44/69 34/88/70 38/87/71 39/45/72
s 3
f 34/35/73 36/83/74 40/82/75 38/38/76
s 4
f 36/36/77 37/76/78 41/79/79 40/37/80
s 5
f 37/43/81 35/93/82 39/92/83 41/46/84
s 2
f 39/45/72 38/87/71 42/85/85 43/47/86
s 3
f 38/38/76 40/82/75 44/80/87 42/40/88
s 4
f 40/37/80 41/79/79 45/77/89 44/39/90
s 5
f 41/46/84 39/92/83 43/90/91 45/48/92
s off
f 43/47/93 42/85/94 46/86/95 47/71/96
f 42/40/97 44/80/98 48/81/99 46/42/100
f 44/39/101 45/77/102 49/78/103 48/41/104
f 45/48/105 43/90/106 47/91/107 49/50/108
