# This file uses centimeters as units for non-parametric coordinates.

mtllib clayPot2.mtl
g default
v 0.333624 -0.039385 -0.236724
v -0.399673 0.012030 -0.446610
v -0.484422 0.012030 0.231389
v -0.127630 0.012030 0.795967
v 0.377677 0.012030 0.700715
v 0.459589 0.012030 0.215568
v 0.762235 8.361663 -1.160675
v -1.309985 8.616295 -1.373864
v -1.690241 8.616295 0.231389
v -1.037943 8.616295 1.723222
v 1.287988 8.616295 1.627970
v 1.665408 8.616295 0.215568
v 0.053401 -0.039385 0.217496
v 0.889535 7.632565 1.404165
v -0.637923 7.632565 1.504797
v -1.104854 7.632565 0.235598
v -0.856264 7.632565 -1.149365
v 0.278008 7.445317 -0.825054
v 1.086816 7.632565 0.212893
v 0.867059 6.987810 1.406775
v -0.633359 6.987810 1.501205
v -1.109872 6.987810 0.230053
v -0.842347 6.987810 -1.154011
v 0.431900 7.063719 -0.906524
v 1.085037 6.987810 0.217168
v 1.405214 5.915721 1.498487
v -0.616310 5.915721 1.820592
v -1.510222 5.915721 0.444453
v -1.189635 5.915721 -1.177176
v 0.473178 5.200703 -1.561647
v 1.671845 5.915721 0.045880
v 1.194041 3.835505 1.940151
v -1.076779 3.835505 1.918504
v -1.869856 3.835505 0.163187
v -1.043064 3.835505 -1.597544
v 0.808792 3.354312 -1.678709
v 1.804993 3.835505 0.231999
v 1.331292 2.364806 1.413392
v -0.478792 2.364806 1.868870
v -1.588868 2.364806 0.565193
v -1.277481 2.364806 -1.120070
v 0.148988 2.048928 -1.595281
v 1.549834 2.364806 -0.116989
v 0.238768 8.018021 -0.309759
v -0.299332 7.851866 -0.460540
v -0.791936 7.966853 0.121766
v -0.672781 7.920651 0.910070
v 0.210629 8.022469 1.160280
v 0.696747 8.126222 0.679479
v 0.880207 6.110858 -0.255614
v 0.257370 6.864805 -0.776156
v -0.288023 6.822883 -0.199310
v -0.354127 6.791238 0.410194
v 0.204957 6.866286 0.898245
v 0.707973 6.941985 0.910185
v 0.828546 2.579838 -0.154504
v 0.540866 2.872052 -0.917928
v -0.221871 2.504717 1.452137
v -0.106403 2.825915 -0.364064
v -0.086232 2.797214 0.301803
v 0.596741 2.880803 0.937298
v 1.167159 2.963109 0.855844
v 0.724527 9.337811 -1.215020
v -1.180332 9.091000 -1.109386
v -0.667612 9.081184 -0.575466
v 0.674773 9.379256 -0.714572
v -1.437690 9.077155 0.120770
v -0.900571 9.045747 0.342503
v -0.861497 9.076591 1.244153
v -0.580204 9.022062 0.919454
v 1.217088 9.088606 1.243252
v 0.557559 9.079382 0.854150
v 1.616350 9.078846 0.302775
v 0.978958 9.127325 0.306900
vt 0.929826 0.710717
vt 0.156514 0.742005
vt 0.157842 0.769603
vt 0.932954 0.738976
vt 0.979190 0.641316
vt 0.206355 0.699037
vt 0.140849 0.814021
vt 0.023027 0.842306
vt 0.795909 0.740346
vt 0.799934 0.767127
vt 0.960057 0.538216
vt 0.210796 0.613534
vt 0.838994 0.675878
vt 0.137589 0.858813
vt 0.028610 0.872040
vt 0.812610 0.820161
vt 0.665267 0.767302
vt 0.667493 0.792281
vt 0.899491 0.480788
vt 0.216474 0.548787
vt 0.809040 0.592773
vt 0.695229 0.716884
vt 0.825304 0.846006
vt 0.053858 0.241111
vt 0.140366 0.309406
vt 0.767400 0.539926
vt 0.678280 0.635367
vt 0.036363 0.126856
vt 0.658236 0.576964
vt 0.309957 0.766434
vt 0.503742 0.787973
vt 0.504736 0.814140
vt 0.309360 0.792535
vt 0.372881 0.721372
vt 0.543446 0.731045
vt 0.497868 0.873758
vt 0.314527 0.842488
vt 0.369144 0.636847
vt 0.536445 0.648074
vt 0.657845 0.837018
vt 0.492505 0.892936
vt 0.331415 0.874197
vt 0.356928 0.570528
vt 0.520215 0.585230
vt 0.593438 0.259482
vt 0.232326 0.240368
vt 0.231092 0.035112
vt 0.888170 0.154962
vt 0.855568 0.158714
vt 0.867306 0.136842
vt 0.894815 0.135150
vt 0.677159 0.208988
vt 0.852119 0.174745
vt 0.282051 0.089960
vt 0.890180 0.071980
vt 0.931322 0.152485
vt 0.930207 0.134232
vt 0.676090 0.105582
vt 0.923170 0.072642
vt 0.977103 0.125942
vt 0.958136 0.131091
vt 0.952319 0.071010
vt 0.973084 0.067207
vt 0.790228 0.151854
vt 0.959921 0.156119
vt 0.838606 0.137867
vt 0.836363 0.076761
vt 0.561097 0.076302
vt 0.602607 0.051742
vt 0.824004 0.158855
vt 0.545216 0.145232
vt 0.132251 0.058549
vt 0.114072 0.184336
vt 0.401312 0.132454
vt 0.534591 0.451318
vt 0.613234 0.436307
vt 0.381768 0.450802
vt 0.302172 0.429150
vt 0.762019 0.392001
vt 0.700890 0.426101
vt 0.715393 0.227715
vt 0.652669 0.872029
vt 0.728431 0.098304
vt 0.596315 0.021536
vt 0.521554 0.075785
vt 0.496997 0.166593
vt 0.879495 0.173975
vt 0.606739 0.224103
vt 0.918774 0.168721
vt 0.958637 0.172119
vt 0.778389 0.165932
vt 0.809216 0.174177
vt 0.938710 0.829132
vt 0.981006 0.167235
vt 0.980561 0.147585
vt 0.949901 0.800436
vt 0.811708 0.136692
vt 0.111016 0.473220
vt 0.079955 0.557543
vt 0.073733 0.675112
vt 0.029420 0.744404
vt 0.031016 0.772755
vt 0.251326 0.389880
vt 0.306935 0.186561
vt 0.864294 0.072155
vt 0.424321 0.234919
vt 0.487473 0.145314
vt 0.810681 0.079472
vt 0.467497 0.073187
vt 0.378480 0.040235
vn -0.183356 -0.444946 -0.876586
vn -0.183356 -0.444946 -0.876586
vn -0.193682 -0.272415 -0.942485
vn -0.193062 -0.287451 -0.938136
vn -0.906884 -0.393005 -0.152014
vn -0.906884 -0.393005 -0.152014
vn -0.936726 -0.264687 -0.229096
vn -0.939866 -0.240188 -0.242820
vn -0.723108 -0.393412 0.567751
vn -0.723108 -0.393412 0.567751
vn -0.780996 -0.298329 0.548676
vn -0.789362 -0.282709 0.544962
vn 0.214940 -0.370421 0.903653
vn 0.214940 -0.370421 0.903653
vn 0.157859 -0.264863 0.951277
vn 0.149929 -0.250233 0.956507
vn 0.904806 -0.403899 0.134879
vn 0.904806 -0.403899 0.134879
vn 0.944697 -0.266446 0.191190
vn 0.949754 -0.239610 0.201381
vn 0.763926 -0.359768 -0.535709
vn 0.763926 -0.359768 -0.535708
vn 0.792147 -0.295856 -0.533829
vn 0.799951 -0.276161 -0.532742
vn -0.077242 -0.996712 -0.024468
vn -0.016513 -0.999812 -0.010187
vn -0.024665 -0.999408 0.023984
vn -0.094764 -0.995383 0.015245
vn -0.035092 -0.996369 0.077577
vn 0.052279 -0.996112 0.070905
vn 0.125659 -0.990944 0.047330
vn 0.053048 0.995284 0.081218
vn 0.214252 0.952467 0.216573
vn -0.040753 0.949598 -0.310811
vn 0.093394 0.979380 0.179143
vn 0.525036 -0.837567 -0.151061
vn 0.209703 -0.917839 -0.337040
vn -0.392962 0.890017 -0.231193
vn 0.054022 -0.157593 0.986025
vn 0.054015 -0.157687 0.986011
vn 0.037194 0.228204 0.972903
vn 0.038396 0.195791 0.979894
vn -0.883939 -0.312629 0.347730
vn -0.885946 -0.306483 0.348091
vn -0.827228 -0.450829 0.335330
vn -0.827228 -0.450829 0.335330
vn -0.925808 -0.328666 -0.186704
vn -0.926277 -0.327325 -0.186733
vn -0.860795 -0.475670 -0.181026
vn -0.860795 -0.475670 -0.181026
vn 0.159023 -0.160619 -0.974122
vn 0.145584 -0.204525 -0.967975
vn 0.070131 -0.047295 -0.996416
vn 0.075317 -0.070714 -0.994649
vn 0.796687 -0.356641 -0.487953
vn 0.811548 -0.293874 -0.505003
vn 0.822420 -0.280238 -0.495068
vn 0.838405 -0.195925 -0.508617
vn 0.928833 -0.318243 0.189712
vn 0.929740 -0.315633 0.189629
vn 0.930189 -0.282429 0.234482
vn 0.917889 -0.327295 0.224404
vn 0.098355 0.143629 0.984732
vn 0.100865 0.154585 0.982817
vn -0.893867 0.171899 0.414069
vn -0.889950 0.182871 0.417790
vn -0.961795 0.201830 -0.184973
vn -0.959417 0.212966 -0.184837
vn 0.049601 0.204926 -0.977520
vn 0.045662 0.206647 -0.977350
vn 0.760873 0.293613 -0.578675
vn 0.761507 0.292264 -0.578523
vn 0.936034 0.308823 0.168724
vn 0.931856 0.321481 0.168207
vn 0.081720 0.144084 0.986185
vn 0.080890 0.142286 0.986515
vn -0.867693 0.182364 0.462441
vn -0.867646 0.182855 0.462337
vn -0.945554 0.164249 -0.280980
vn -0.945547 0.163825 -0.281251
vn -0.065074 0.150438 -0.986475
vn -0.041458 0.176322 -0.983459
vn 0.800611 0.192252 -0.567504
vn 0.815316 0.146895 -0.560072
vn 0.958410 0.152404 0.241295
vn 0.958168 0.154708 0.240788
vn 0.083155 0.011736 0.996468
vn 0.084227 0.003225 0.996441
vn -0.868308 0.017344 0.495722
vn -0.867351 0.005446 0.497667
vn -0.947821 0.019678 -0.318195
vn -0.948055 0.010846 -0.317920
vn -0.141431 0.002509 -0.989945
vn -0.130231 0.028836 -0.991064
vn 0.836257 -0.002888 -0.548330
vn 0.835864 -0.060592 -0.545582
vn 0.965178 -0.031087 0.259740
vn 0.965209 -0.036114 0.258973
vn -0.074873 0.995540 0.057392
vn -0.079991 0.996154 0.035763
vn -0.086616 0.995580 0.036310
vn 0.023186 0.997026 0.073495
vn 0.034459 0.999291 0.015169
vn 0.059310 0.998226 -0.005209
vn 0.034528 0.997668 -0.058879
vn 0.019323 0.997786 -0.063636
vn 0.007660 0.999958 0.004975
vn -0.008038 0.999290 -0.036817
vn 0.109216 0.991665 0.068361
vn 0.106227 0.992062 0.067300
vn -0.266140 0.015707 0.963806
vn -0.287554 -0.003884 0.957757
vn -0.729208 -0.166163 0.663812
vn -0.814046 -0.048628 0.578761
vn 0.808529 0.171450 0.562926
vn 0.852938 0.168678 0.494009
vn 0.702074 0.051029 0.710273
vn 0.696381 0.035435 0.716797
vn 0.938307 0.345416 -0.016375
vn 0.938307 0.345416 -0.016375
vn 0.989703 0.141330 0.022649
vn 0.992375 0.120368 0.026531
vn 0.260493 0.095939 -0.960697
vn 0.228883 0.043288 -0.972491
vn 0.605801 0.134266 -0.784205
vn 0.619137 0.118706 -0.776259
vn -0.570026 0.011465 -0.821547
vn -0.645683 0.011561 -0.763518
vn -0.156186 -0.000989 -0.987727
vn -0.140441 -0.001663 -0.990088
vn -0.960018 0.041685 0.276819
vn -0.956439 0.067900 0.283924
vn -0.989621 -0.074881 0.122650
vn -0.980924 -0.116747 0.155430
vn -0.826191 -0.028499 0.562669
vn -0.826191 -0.028499 0.562669
vn 0.687483 0.012165 0.726099
vn 0.687483 0.012165 0.726099
vn 0.997753 0.054809 0.038527
vn 0.997753 0.054809 0.038527
vn 0.665244 0.061462 -0.744092
vn 0.665244 0.061462 -0.744092
vn -0.063902 -0.004912 -0.997944
vn -0.063902 -0.004912 -0.997944
vn -0.992981 -0.053226 0.105622
vn -0.992981 -0.053226 0.105622
vn 0.027040 0.141607 -0.989554
vn 0.027040 0.141607 -0.989554
vn -0.054904 0.197792 0.978705
vn -0.054904 0.197792 0.978705
vn -0.895231 0.398514 -0.199370
vn -0.895231 0.398514 -0.199370
vn -0.895231 0.398514 -0.199370
vn -0.895231 0.398514 -0.199370
vn 0.891335 0.164805 0.422328
vn 0.891335 0.164805 0.422328
vn -0.743624 0.570014 0.349439
vn -0.743624 0.570014 0.349439
vn -0.743624 0.570014 0.349439
vn -0.743624 0.570014 0.349439
vn 0.951742 0.039137 -0.304394
vn 0.951742 0.039137 -0.304394
vn 0.951742 0.039137 -0.304394
vn 0.951742 0.039137 -0.304394
vn 0.014181 0.678586 0.734384
vn 0.014181 0.678586 0.734384
vn 0.102155 -0.155882 -0.982479
vn 0.102155 -0.155882 -0.982479
vn 0.927420 0.216144 0.305243
vn 0.927420 0.216144 0.305243
vn -0.750480 0.011503 -0.660793
vn -0.750480 0.011503 -0.660793
vn 0.848157 0.063165 -0.525965
vn 0.848157 0.063165 -0.525965
vn -0.857095 0.376345 0.351785
vn -0.857095 0.376345 0.351785
s 1
g clayPot2
usemtl lambert4SG
f 1/76/1 2/80/2 41/26/3 42/29/4
s 2
f 2/80/5 3/79/6 40/19/7 41/26/8
s 3
f 3/103/9 4/78/10 39/20/11 40/98/12
s 4
f 4/78/13 5/77/14 38/43/15 39/20/16
s 5
f 5/77/17 6/75/18 43/44/19 38/43/20
s 6
f 6/75/21 1/76/22 42/29/23 43/44/24
s 7
f 2/28/25 1/72/26 13/73/27
f 3/24/28 2/28/25 13/73/27
f 4/25/29 3/24/28 13/73/27
f 5/46/30 4/25/29 13/73/27
f 6/47/31 5/46/30 13/73/27
f 1/72/26 6/47/31 13/73/27
s 8
f 56/54/32 57/110/33 58/74/34
f 57/110/33 59/109/35 58/74/34
f 59/109/35 60/107/36 58/74/34
f 60/107/36 61/106/37 58/74/34
f 61/106/37 62/104/38 58/74/34
f 62/104/38 56/54/32 58/74/34
s 4
f 15/3/39 14/33/40 11/37/41 10/7/42
s 3
f 16/102/43 15/3/44 10/7/45 9/8/46
s 2
f 17/10/47 16/4/48 9/96/49 8/16/50
s 1
f 18/18/51 17/10/52 8/16/53 7/40/54
s 6
f 19/32/55 18/18/56 7/40/57 12/36/58
s 5
f 14/33/59 19/32/60 12/36/61 11/37/62
s 4
f 21/2/63 20/30/64 14/33/40 15/3/39
s 3
f 22/101/65 21/2/66 15/3/44 16/102/43
s 2
f 23/9/67 22/1/68 16/4/48 17/10/47
s 1
f 24/17/69 23/9/70 17/10/52 18/18/51
s 6
f 25/31/71 24/17/72 18/18/56 19/32/55
s 5
f 20/30/73 25/31/74 19/32/60 14/33/59
s 4
f 27/6/75 26/34/76 20/30/64 21/2/63
s 3
f 28/100/77 27/6/78 21/2/66 22/101/65
s 2
f 29/13/79 28/5/80 22/1/68 23/9/67
s 1
f 30/22/81 29/13/82 23/9/70 24/17/69
s 6
f 31/35/83 30/22/84 24/17/72 25/31/71
s 5
f 26/34/85 31/35/86 25/31/74 20/30/73
s 4
f 33/12/87 32/38/88 26/34/76 27/6/75
s 3
f 34/99/89 33/12/90 27/6/78 28/100/77
s 2
f 35/21/91 34/11/92 28/5/80 29/13/79
s 1
f 36/27/93 35/21/94 29/13/82 30/22/81
s 6
f 37/39/95 36/27/96 30/22/84 31/35/83
s 5
f 32/38/97 37/39/98 31/35/86 26/34/85
s 4
f 39/20/16 38/43/15 32/38/88 33/12/87
s 3
f 40/98/12 39/20/11 33/12/90 34/99/89
s 2
f 41/26/8 40/19/7 34/11/92 35/21/91
s 1
f 42/29/4 41/26/3 35/21/94 36/27/93
s 6
f 43/44/24 42/29/23 36/27/96 37/39/95
s 5
f 38/43/20 43/44/19 37/39/98 32/38/97
s 15
f 63/45/99 64/86/100 65/71/101 66/88/102
f 64/86/100 67/85/103 68/68/104 65/71/101
f 67/85/103 69/84/105 70/69/106 68/68/104
f 69/84/105 71/83/107 72/58/108 70/69/106
f 71/83/107 73/81/109 74/52/110 72/58/108
f 73/81/109 63/45/99 66/88/102 74/52/110
s 16
f 44/49/111 45/70/112 51/66/113 50/50/114
s 17
f 45/70/115 46/64/116 52/97/117 51/66/118
s 18
f 46/95/119 47/65/120 53/61/121 52/60/122
s 19
f 47/65/123 48/56/124 54/57/125 53/61/126
s 20
f 48/56/127 49/48/128 55/51/129 54/57/130
s 21
f 49/48/131 44/49/132 50/50/133 55/51/134
s 16
f 50/50/114 51/66/113 57/67/135 56/105/136
s 17
f 51/66/118 52/97/117 59/108/137 57/67/138
s 18
f 52/60/122 53/61/121 60/62/139 59/63/140
s 19
f 53/61/126 54/57/125 61/59/141 60/62/142
s 20
f 54/57/130 55/51/129 62/55/143 61/59/144
s 21
f 55/51/134 50/50/133 56/105/145 62/55/146
s 1
f 7/40/54 8/16/53 64/23/147 63/82/148
s 16
f 45/70/112 44/49/111 66/53/149 65/92/150
s off
f 8/16/151 9/96/152 67/93/153 64/23/154
s 17
f 46/64/116 45/70/115 65/92/155 68/91/156
s off
f 9/8/157 10/7/158 69/14/159 67/15/160
f 47/65/161 46/95/162 68/94/163 70/90/164
s 4
f 10/7/42 11/37/41 71/42/165 69/14/166
s 19
f 48/56/124 47/65/123 70/90/167 72/89/168
s 5
f 11/37/62 12/36/61 73/41/169 71/42/170
s 20
f 49/48/128 48/56/127 72/89/171 74/87/172
s 6
f 12/36/58 7/40/57 63/82/173 73/41/174
s 21
f 44/49/132 49/48/131 74/87/175 66/53/176
